<?xml version="1.0" encoding="UTF-8" standalone="no"?>
<!DOCTYPE svg PUBLIC "-//W3C//DTD SVG 1.1//EN"
 "http://www.w3.org/Graphics/SVG/1.1/DTD/svg11.dtd">
<!-- Generated by graphviz version 2.38.0 (20140413.2041)
 -->
<!-- Title: Tree Pages: 1 -->
<svg width="867pt" height="581pt"
 viewBox="0.00 0.00 867.00 581.00" xmlns="http://www.w3.org/2000/svg" xmlns:xlink="http://www.w3.org/1999/xlink">
<g id="graph0" class="graph" transform="scale(1 1) rotate(0) translate(4 577)">
<title>Tree</title>
<polygon fill="white" stroke="none" points="-4,4 -4,-577 863,-577 863,4 -4,4"/>
<!-- 0 -->
<g id="node1" class="node"><title>0</title>
<path fill="none" stroke="black" d="M523.5,-573C523.5,-573 379.5,-573 379.5,-573 373.5,-573 367.5,-567 367.5,-561 367.5,-561 367.5,-517 367.5,-517 367.5,-511 373.5,-505 379.5,-505 379.5,-505 523.5,-505 523.5,-505 529.5,-505 535.5,-511 535.5,-517 535.5,-517 535.5,-561 535.5,-561 535.5,-567 529.5,-573 523.5,-573"/>
<text text-anchor="middle" x="451.5" y="-557.8" font-family="Helvetica,sans-Serif" font-size="14.00">petal length (cm) &lt;= 2.45</text>
<text text-anchor="middle" x="451.5" y="-542.8" font-family="Helvetica,sans-Serif" font-size="14.00">samples = 144</text>
<text text-anchor="middle" x="451.5" y="-527.8" font-family="Helvetica,sans-Serif" font-size="14.00">value = [48, 48, 48]</text>
<text text-anchor="middle" x="451.5" y="-512.8" font-family="Helvetica,sans-Serif" font-size="14.00">class = setosa</text>
</g>
<!-- 1 -->
<g id="node2" class="node"><title>1</title>
<path fill="#e58139" stroke="black" d="M419,-461.5C419,-461.5 326,-461.5 326,-461.5 320,-461.5 314,-455.5 314,-449.5 314,-449.5 314,-420.5 314,-420.5 314,-414.5 320,-408.5 326,-408.5 326,-408.5 419,-408.5 419,-408.5 425,-408.5 431,-414.5 431,-420.5 431,-420.5 431,-449.5 431,-449.5 431,-455.5 425,-461.5 419,-461.5"/>
<text text-anchor="middle" x="372.5" y="-446.3" font-family="Helvetica,sans-Serif" font-size="14.00">samples = 48</text>
<text text-anchor="middle" x="372.5" y="-431.3" font-family="Helvetica,sans-Serif" font-size="14.00">value = [48, 0, 0]</text>
<text text-anchor="middle" x="372.5" y="-416.3" font-family="Helvetica,sans-Serif" font-size="14.00">class = setosa</text>
</g>
<!-- 0&#45;&gt;1 -->
<g id="edge1" class="edge"><title>0&#45;&gt;1</title>
<path fill="none" stroke="black" d="M425.851,-504.884C417.077,-493.556 407.26,-480.88 398.462,-469.521"/>
<polygon fill="black" stroke="black" points="401.156,-467.283 392.265,-461.52 395.622,-471.569 401.156,-467.283"/>
<text text-anchor="middle" x="389.114" y="-482.621" font-family="Helvetica,sans-Serif" font-size="14.00">True</text>
</g>
<!-- 2 -->
<g id="node3" class="node"><title>2</title>
<path fill="none" stroke="black" d="M600,-469C600,-469 461,-469 461,-469 455,-469 449,-463 449,-457 449,-457 449,-413 449,-413 449,-407 455,-401 461,-401 461,-401 600,-401 600,-401 606,-401 612,-407 612,-413 612,-413 612,-457 612,-457 612,-463 606,-469 600,-469"/>
<text text-anchor="middle" x="530.5" y="-453.8" font-family="Helvetica,sans-Serif" font-size="14.00">petal width (cm) &lt;= 1.75</text>
<text text-anchor="middle" x="530.5" y="-438.8" font-family="Helvetica,sans-Serif" font-size="14.00">samples = 96</text>
<text text-anchor="middle" x="530.5" y="-423.8" font-family="Helvetica,sans-Serif" font-size="14.00">value = [0, 48, 48]</text>
<text text-anchor="middle" x="530.5" y="-408.8" font-family="Helvetica,sans-Serif" font-size="14.00">class = versicolor</text>
</g>
<!-- 0&#45;&gt;2 -->
<g id="edge2" class="edge"><title>0&#45;&gt;2</title>
<path fill="none" stroke="black" d="M477.149,-504.884C483.979,-496.065 491.441,-486.43 498.563,-477.235"/>
<polygon fill="black" stroke="black" points="501.353,-479.349 504.709,-469.299 495.819,-475.062 501.353,-479.349"/>
<text text-anchor="middle" x="507.861" y="-490.4" font-family="Helvetica,sans-Serif" font-size="14.00">False</text>
</g>
<!-- 3 -->
<g id="node4" class="node"><title>3</title>
<path fill="#39e581" fill-opacity="0.894118" stroke="black" d="M489.5,-365C489.5,-365 345.5,-365 345.5,-365 339.5,-365 333.5,-359 333.5,-353 333.5,-353 333.5,-309 333.5,-309 333.5,-303 339.5,-297 345.5,-297 345.5,-297 489.5,-297 489.5,-297 495.5,-297 501.5,-303 501.5,-309 501.5,-309 501.5,-353 501.5,-353 501.5,-359 495.5,-365 489.5,-365"/>
<text text-anchor="middle" x="417.5" y="-349.8" font-family="Helvetica,sans-Serif" font-size="14.00">petal length (cm) &lt;= 4.95</text>
<text text-anchor="middle" x="417.5" y="-334.8" font-family="Helvetica,sans-Serif" font-size="14.00">samples = 52</text>
<text text-anchor="middle" x="417.5" y="-319.8" font-family="Helvetica,sans-Serif" font-size="14.00">value = [0, 47, 5]</text>
<text text-anchor="middle" x="417.5" y="-304.8" font-family="Helvetica,sans-Serif" font-size="14.00">class = versicolor</text>
</g>
<!-- 2&#45;&gt;3 -->
<g id="edge3" class="edge"><title>2&#45;&gt;3</title>
<path fill="none" stroke="black" d="M493.812,-400.884C483.648,-391.709 472.505,-381.65 461.95,-372.123"/>
<polygon fill="black" stroke="black" points="464.159,-369.402 454.39,-365.299 459.468,-374.598 464.159,-369.402"/>
</g>
<!-- 12 -->
<g id="node13" class="node"><title>12</title>
<path fill="#8139e5" fill-opacity="0.976471" stroke="black" d="M716.5,-365C716.5,-365 572.5,-365 572.5,-365 566.5,-365 560.5,-359 560.5,-353 560.5,-353 560.5,-309 560.5,-309 560.5,-303 566.5,-297 572.5,-297 572.5,-297 716.5,-297 716.5,-297 722.5,-297 728.5,-303 728.5,-309 728.5,-309 728.5,-353 728.5,-353 728.5,-359 722.5,-365 716.5,-365"/>
<text text-anchor="middle" x="644.5" y="-349.8" font-family="Helvetica,sans-Serif" font-size="14.00">petal length (cm) &lt;= 4.85</text>
<text text-anchor="middle" x="644.5" y="-334.8" font-family="Helvetica,sans-Serif" font-size="14.00">samples = 44</text>
<text text-anchor="middle" x="644.5" y="-319.8" font-family="Helvetica,sans-Serif" font-size="14.00">value = [0, 1, 43]</text>
<text text-anchor="middle" x="644.5" y="-304.8" font-family="Helvetica,sans-Serif" font-size="14.00">class = virginica</text>
</g>
<!-- 2&#45;&gt;12 -->
<g id="edge12" class="edge"><title>2&#45;&gt;12</title>
<path fill="none" stroke="black" d="M567.513,-400.884C577.766,-391.709 589.009,-381.65 599.657,-372.123"/>
<polygon fill="black" stroke="black" points="602.164,-374.576 607.283,-365.299 597.497,-369.359 602.164,-374.576"/>
</g>
<!-- 4 -->
<g id="node5" class="node"><title>4</title>
<path fill="#39e581" fill-opacity="0.976471" stroke="black" d="M265,-261C265,-261 126,-261 126,-261 120,-261 114,-255 114,-249 114,-249 114,-205 114,-205 114,-199 120,-193 126,-193 126,-193 265,-193 265,-193 271,-193 277,-199 277,-205 277,-205 277,-249 277,-249 277,-255 271,-261 265,-261"/>
<text text-anchor="middle" x="195.5" y="-245.8" font-family="Helvetica,sans-Serif" font-size="14.00">petal width (cm) &lt;= 1.65</text>
<text text-anchor="middle" x="195.5" y="-230.8" font-family="Helvetica,sans-Serif" font-size="14.00">samples = 46</text>
<text text-anchor="middle" x="195.5" y="-215.8" font-family="Helvetica,sans-Serif" font-size="14.00">value = [0, 45, 1]</text>
<text text-anchor="middle" x="195.5" y="-200.8" font-family="Helvetica,sans-Serif" font-size="14.00">class = versicolor</text>
</g>
<!-- 3&#45;&gt;4 -->
<g id="edge4" class="edge"><title>3&#45;&gt;4</title>
<path fill="none" stroke="black" d="M345.423,-296.884C323.502,-286.812 299.261,-275.674 276.778,-265.344"/>
<polygon fill="black" stroke="black" points="278.143,-262.119 267.595,-261.125 275.221,-268.48 278.143,-262.119"/>
</g>
<!-- 7 -->
<g id="node8" class="node"><title>7</title>
<path fill="#8139e5" fill-opacity="0.498039" stroke="black" d="M487,-261C487,-261 348,-261 348,-261 342,-261 336,-255 336,-249 336,-249 336,-205 336,-205 336,-199 342,-193 348,-193 348,-193 487,-193 487,-193 493,-193 499,-199 499,-205 499,-205 499,-249 499,-249 499,-255 493,-261 487,-261"/>
<text text-anchor="middle" x="417.5" y="-245.8" font-family="Helvetica,sans-Serif" font-size="14.00">petal width (cm) &lt;= 1.55</text>
<text text-anchor="middle" x="417.5" y="-230.8" font-family="Helvetica,sans-Serif" font-size="14.00">samples = 6</text>
<text text-anchor="middle" x="417.5" y="-215.8" font-family="Helvetica,sans-Serif" font-size="14.00">value = [0, 2, 4]</text>
<text text-anchor="middle" x="417.5" y="-200.8" font-family="Helvetica,sans-Serif" font-size="14.00">class = virginica</text>
</g>
<!-- 3&#45;&gt;7 -->
<g id="edge7" class="edge"><title>3&#45;&gt;7</title>
<path fill="none" stroke="black" d="M417.5,-296.884C417.5,-288.778 417.5,-279.982 417.5,-271.472"/>
<polygon fill="black" stroke="black" points="421,-271.299 417.5,-261.299 414,-271.299 421,-271.299"/>
</g>
<!-- 5 -->
<g id="node6" class="node"><title>5</title>
<path fill="#39e581" stroke="black" d="M109,-149.5C109,-149.5 12,-149.5 12,-149.5 6,-149.5 7.10543e-15,-143.5 7.10543e-15,-137.5 7.10543e-15,-137.5 7.10543e-15,-108.5 7.10543e-15,-108.5 7.10543e-15,-102.5 6,-96.5 12,-96.5 12,-96.5 109,-96.5 109,-96.5 115,-96.5 121,-102.5 121,-108.5 121,-108.5 121,-137.5 121,-137.5 121,-143.5 115,-149.5 109,-149.5"/>
<text text-anchor="middle" x="60.5" y="-134.3" font-family="Helvetica,sans-Serif" font-size="14.00">samples = 45</text>
<text text-anchor="middle" x="60.5" y="-119.3" font-family="Helvetica,sans-Serif" font-size="14.00">value = [0, 45, 0]</text>
<text text-anchor="middle" x="60.5" y="-104.3" font-family="Helvetica,sans-Serif" font-size="14.00">class = versicolor</text>
</g>
<!-- 4&#45;&gt;5 -->
<g id="edge5" class="edge"><title>4&#45;&gt;5</title>
<path fill="none" stroke="black" d="M151.669,-192.884C135.803,-180.896 117.94,-167.399 102.257,-155.549"/>
<polygon fill="black" stroke="black" points="104.365,-152.756 94.2764,-149.52 100.145,-158.341 104.365,-152.756"/>
</g>
<!-- 6 -->
<g id="node7" class="node"><title>6</title>
<path fill="#8139e5" stroke="black" d="M240,-149.5C240,-149.5 151,-149.5 151,-149.5 145,-149.5 139,-143.5 139,-137.5 139,-137.5 139,-108.5 139,-108.5 139,-102.5 145,-96.5 151,-96.5 151,-96.5 240,-96.5 240,-96.5 246,-96.5 252,-102.5 252,-108.5 252,-108.5 252,-137.5 252,-137.5 252,-143.5 246,-149.5 240,-149.5"/>
<text text-anchor="middle" x="195.5" y="-134.3" font-family="Helvetica,sans-Serif" font-size="14.00">samples = 1</text>
<text text-anchor="middle" x="195.5" y="-119.3" font-family="Helvetica,sans-Serif" font-size="14.00">value = [0, 0, 1]</text>
<text text-anchor="middle" x="195.5" y="-104.3" font-family="Helvetica,sans-Serif" font-size="14.00">class = virginica</text>
</g>
<!-- 4&#45;&gt;6 -->
<g id="edge6" class="edge"><title>4&#45;&gt;6</title>
<path fill="none" stroke="black" d="M195.5,-192.884C195.5,-182.326 195.5,-170.597 195.5,-159.854"/>
<polygon fill="black" stroke="black" points="199,-159.52 195.5,-149.52 192,-159.52 199,-159.52"/>
</g>
<!-- 8 -->
<g id="node9" class="node"><title>8</title>
<path fill="#8139e5" stroke="black" d="M371,-149.5C371,-149.5 282,-149.5 282,-149.5 276,-149.5 270,-143.5 270,-137.5 270,-137.5 270,-108.5 270,-108.5 270,-102.5 276,-96.5 282,-96.5 282,-96.5 371,-96.5 371,-96.5 377,-96.5 383,-102.5 383,-108.5 383,-108.5 383,-137.5 383,-137.5 383,-143.5 377,-149.5 371,-149.5"/>
<text text-anchor="middle" x="326.5" y="-134.3" font-family="Helvetica,sans-Serif" font-size="14.00">samples = 3</text>
<text text-anchor="middle" x="326.5" y="-119.3" font-family="Helvetica,sans-Serif" font-size="14.00">value = [0, 0, 3]</text>
<text text-anchor="middle" x="326.5" y="-104.3" font-family="Helvetica,sans-Serif" font-size="14.00">class = virginica</text>
</g>
<!-- 7&#45;&gt;8 -->
<g id="edge8" class="edge"><title>7&#45;&gt;8</title>
<path fill="none" stroke="black" d="M387.955,-192.884C377.751,-181.446 366.32,-168.634 356.111,-157.19"/>
<polygon fill="black" stroke="black" points="358.537,-154.652 349.268,-149.52 353.313,-159.312 358.537,-154.652"/>
</g>
<!-- 9 -->
<g id="node10" class="node"><title>9</title>
<path fill="#39e581" fill-opacity="0.498039" stroke="black" d="M557.5,-157C557.5,-157 413.5,-157 413.5,-157 407.5,-157 401.5,-151 401.5,-145 401.5,-145 401.5,-101 401.5,-101 401.5,-95 407.5,-89 413.5,-89 413.5,-89 557.5,-89 557.5,-89 563.5,-89 569.5,-95 569.5,-101 569.5,-101 569.5,-145 569.5,-145 569.5,-151 563.5,-157 557.5,-157"/>
<text text-anchor="middle" x="485.5" y="-141.8" font-family="Helvetica,sans-Serif" font-size="14.00">petal length (cm) &lt;= 5.45</text>
<text text-anchor="middle" x="485.5" y="-126.8" font-family="Helvetica,sans-Serif" font-size="14.00">samples = 3</text>
<text text-anchor="middle" x="485.5" y="-111.8" font-family="Helvetica,sans-Serif" font-size="14.00">value = [0, 2, 1]</text>
<text text-anchor="middle" x="485.5" y="-96.8" font-family="Helvetica,sans-Serif" font-size="14.00">class = versicolor</text>
</g>
<!-- 7&#45;&gt;9 -->
<g id="edge9" class="edge"><title>7&#45;&gt;9</title>
<path fill="none" stroke="black" d="M439.578,-192.884C445.338,-184.243 451.621,-174.819 457.638,-165.793"/>
<polygon fill="black" stroke="black" points="460.666,-167.561 463.3,-157.299 454.841,-163.678 460.666,-167.561"/>
</g>
<!-- 10 -->
<g id="node11" class="node"><title>10</title>
<path fill="#39e581" stroke="black" d="M466,-53C466,-53 369,-53 369,-53 363,-53 357,-47 357,-41 357,-41 357,-12 357,-12 357,-6 363,-0 369,-0 369,-0 466,-0 466,-0 472,-0 478,-6 478,-12 478,-12 478,-41 478,-41 478,-47 472,-53 466,-53"/>
<text text-anchor="middle" x="417.5" y="-37.8" font-family="Helvetica,sans-Serif" font-size="14.00">samples = 2</text>
<text text-anchor="middle" x="417.5" y="-22.8" font-family="Helvetica,sans-Serif" font-size="14.00">value = [0, 2, 0]</text>
<text text-anchor="middle" x="417.5" y="-7.8" font-family="Helvetica,sans-Serif" font-size="14.00">class = versicolor</text>
</g>
<!-- 9&#45;&gt;10 -->
<g id="edge10" class="edge"><title>9&#45;&gt;10</title>
<path fill="none" stroke="black" d="M461.717,-88.9485C455.332,-80.0749 448.416,-70.4648 441.993,-61.5388"/>
<polygon fill="black" stroke="black" points="444.701,-59.3094 436.02,-53.2367 439.019,-63.398 444.701,-59.3094"/>
</g>
<!-- 11 -->
<g id="node12" class="node"><title>11</title>
<path fill="#8139e5" stroke="black" d="M597,-53C597,-53 508,-53 508,-53 502,-53 496,-47 496,-41 496,-41 496,-12 496,-12 496,-6 502,-0 508,-0 508,-0 597,-0 597,-0 603,-0 609,-6 609,-12 609,-12 609,-41 609,-41 609,-47 603,-53 597,-53"/>
<text text-anchor="middle" x="552.5" y="-37.8" font-family="Helvetica,sans-Serif" font-size="14.00">samples = 1</text>
<text text-anchor="middle" x="552.5" y="-22.8" font-family="Helvetica,sans-Serif" font-size="14.00">value = [0, 0, 1]</text>
<text text-anchor="middle" x="552.5" y="-7.8" font-family="Helvetica,sans-Serif" font-size="14.00">class = virginica</text>
</g>
<!-- 9&#45;&gt;11 -->
<g id="edge11" class="edge"><title>9&#45;&gt;11</title>
<path fill="none" stroke="black" d="M508.933,-88.9485C515.225,-80.0749 522.038,-70.4648 528.367,-61.5388"/>
<polygon fill="black" stroke="black" points="531.324,-63.4188 534.253,-53.2367 525.614,-59.3701 531.324,-63.4188"/>
</g>
<!-- 13 -->
<g id="node14" class="node"><title>13</title>
<path fill="#8139e5" fill-opacity="0.498039" stroke="black" d="M711.5,-261C711.5,-261 577.5,-261 577.5,-261 571.5,-261 565.5,-255 565.5,-249 565.5,-249 565.5,-205 565.5,-205 565.5,-199 571.5,-193 577.5,-193 577.5,-193 711.5,-193 711.5,-193 717.5,-193 723.5,-199 723.5,-205 723.5,-205 723.5,-249 723.5,-249 723.5,-255 717.5,-261 711.5,-261"/>
<text text-anchor="middle" x="644.5" y="-245.8" font-family="Helvetica,sans-Serif" font-size="14.00">sepal width (cm) &lt;= 3.1</text>
<text text-anchor="middle" x="644.5" y="-230.8" font-family="Helvetica,sans-Serif" font-size="14.00">samples = 3</text>
<text text-anchor="middle" x="644.5" y="-215.8" font-family="Helvetica,sans-Serif" font-size="14.00">value = [0, 1, 2]</text>
<text text-anchor="middle" x="644.5" y="-200.8" font-family="Helvetica,sans-Serif" font-size="14.00">class = virginica</text>
</g>
<!-- 12&#45;&gt;13 -->
<g id="edge13" class="edge"><title>12&#45;&gt;13</title>
<path fill="none" stroke="black" d="M644.5,-296.884C644.5,-288.778 644.5,-279.982 644.5,-271.472"/>
<polygon fill="black" stroke="black" points="648,-271.299 644.5,-261.299 641,-271.299 648,-271.299"/>
</g>
<!-- 16 -->
<g id="node17" class="node"><title>16</title>
<path fill="#8139e5" stroke="black" d="M847,-253.5C847,-253.5 754,-253.5 754,-253.5 748,-253.5 742,-247.5 742,-241.5 742,-241.5 742,-212.5 742,-212.5 742,-206.5 748,-200.5 754,-200.5 754,-200.5 847,-200.5 847,-200.5 853,-200.5 859,-206.5 859,-212.5 859,-212.5 859,-241.5 859,-241.5 859,-247.5 853,-253.5 847,-253.5"/>
<text text-anchor="middle" x="800.5" y="-238.3" font-family="Helvetica,sans-Serif" font-size="14.00">samples = 41</text>
<text text-anchor="middle" x="800.5" y="-223.3" font-family="Helvetica,sans-Serif" font-size="14.00">value = [0, 0, 41]</text>
<text text-anchor="middle" x="800.5" y="-208.3" font-family="Helvetica,sans-Serif" font-size="14.00">class = virginica</text>
</g>
<!-- 12&#45;&gt;16 -->
<g id="edge16" class="edge"><title>12&#45;&gt;16</title>
<path fill="none" stroke="black" d="M695.149,-296.884C713.651,-284.786 734.504,-271.151 752.746,-259.224"/>
<polygon fill="black" stroke="black" points="755.015,-261.922 761.47,-253.52 751.184,-256.063 755.015,-261.922"/>
</g>
<!-- 14 -->
<g id="node15" class="node"><title>14</title>
<path fill="#8139e5" stroke="black" d="M689,-149.5C689,-149.5 600,-149.5 600,-149.5 594,-149.5 588,-143.5 588,-137.5 588,-137.5 588,-108.5 588,-108.5 588,-102.5 594,-96.5 600,-96.5 600,-96.5 689,-96.5 689,-96.5 695,-96.5 701,-102.5 701,-108.5 701,-108.5 701,-137.5 701,-137.5 701,-143.5 695,-149.5 689,-149.5"/>
<text text-anchor="middle" x="644.5" y="-134.3" font-family="Helvetica,sans-Serif" font-size="14.00">samples = 2</text>
<text text-anchor="middle" x="644.5" y="-119.3" font-family="Helvetica,sans-Serif" font-size="14.00">value = [0, 0, 2]</text>
<text text-anchor="middle" x="644.5" y="-104.3" font-family="Helvetica,sans-Serif" font-size="14.00">class = virginica</text>
</g>
<!-- 13&#45;&gt;14 -->
<g id="edge14" class="edge"><title>13&#45;&gt;14</title>
<path fill="none" stroke="black" d="M644.5,-192.884C644.5,-182.326 644.5,-170.597 644.5,-159.854"/>
<polygon fill="black" stroke="black" points="648,-159.52 644.5,-149.52 641,-159.52 648,-159.52"/>
</g>
<!-- 15 -->
<g id="node16" class="node"><title>15</title>
<path fill="#39e581" stroke="black" d="M828,-149.5C828,-149.5 731,-149.5 731,-149.5 725,-149.5 719,-143.5 719,-137.5 719,-137.5 719,-108.5 719,-108.5 719,-102.5 725,-96.5 731,-96.5 731,-96.5 828,-96.5 828,-96.5 834,-96.5 840,-102.5 840,-108.5 840,-108.5 840,-137.5 840,-137.5 840,-143.5 834,-149.5 828,-149.5"/>
<text text-anchor="middle" x="779.5" y="-134.3" font-family="Helvetica,sans-Serif" font-size="14.00">samples = 1</text>
<text text-anchor="middle" x="779.5" y="-119.3" font-family="Helvetica,sans-Serif" font-size="14.00">value = [0, 1, 0]</text>
<text text-anchor="middle" x="779.5" y="-104.3" font-family="Helvetica,sans-Serif" font-size="14.00">class = versicolor</text>
</g>
<!-- 13&#45;&gt;15 -->
<g id="edge15" class="edge"><title>13&#45;&gt;15</title>
<path fill="none" stroke="black" d="M688.331,-192.884C704.197,-180.896 722.06,-167.399 737.743,-155.549"/>
<polygon fill="black" stroke="black" points="739.855,-158.341 745.724,-149.52 735.635,-152.756 739.855,-158.341"/>
</g>
</g>
</svg>
